<svg xmlns="http://www.w3.org/2000/svg" viewBox="0 0 64 64" width="64" height="64">
  <!-- Background rounded square -->
  <rect width="64" height="64" rx="14" fill="#00BFEA"/>
  <!-- Car body -->
  <path d="M10 38 L14 26 Q15 23 18 23 L46 23 Q49 23 50 26 L54 38 Q56 38.5 56 41 L56 46 Q56 48 54 48 L50 48 Q50 48 50 46 L14 46 Q14 48 14 48 L10 48 Q8 48 8 46 L8 41 Q8 38.5 10 38 Z" fill="white"/>
  <!-- Windshield -->
  <path d="M19 35 L22 26 L42 26 L45 35 Z" fill="#00BFEA" opacity="0.6"/>
  <!-- Left wheel -->
  <circle cx="20" cy="47" r="6" fill="#0A1628"/>
  <circle cx="20" cy="47" r="2.5" fill="#00BFEA"/>
  <!-- Right wheel -->
  <circle cx="44" cy="47" r="6" fill="#0A1628"/>
  <circle cx="44" cy="47" r="2.5" fill="#00BFEA"/>
</svg>
